<?xml version='1.0' encoding='iso-8859-1'?>
<svg version="1.1" xmlns="http://www.w3.org/2000/svg" viewBox="0 0 240.95 240.95" xmlns:xlink="http://www.w3.org/1999/xlink" enable-background="new 0 0 240.95 240.95" style="fill: #FF7212">
  <g>
    <path d="m224.777,64.55c-10.43-10.43-24.297-16.173-39.047-16.173-10.248,0-20.066,2.778-28.605,7.969l-2.17-7.154h-119.236l-10.734,35.381h-24.985v34h14.67l-3.176,10.47-.216,.709v49.243h13.722v13.578h39v-13.578h63v13.578h39v-13.578h13.395v-20.55c2.089,0.237 4.202,0.372 6.336,0.372 14.75,0 28.617-5.743 39.047-16.173s16.173-24.297 16.173-39.047c-0.001-14.75-5.744-28.617-16.174-39.047zm-170.964,1.458h83.046l2.233,8.018c-5.579,8.761-8.581,18.933-8.581,29.571 0,3.643 0.353,7.231 1.038,10.727h-91.195l13.459-48.316zm15.187,86.565h-35v-17h35v17zm88,0h-34v-17h17.715c1.778,2.492 3.762,4.862 5.97,7.07 3.147,3.147 6.612,5.859 10.315,8.124v1.806zm53.635-24.073c-6.651,6.652-15.496,10.315-24.904,10.315-9.407,0-18.252-3.663-24.903-10.315-6.652-6.651-10.315-15.496-10.315-24.904 0-9.407 3.663-18.252 10.315-24.903 6.651-6.652 15.496-10.315 24.903-10.315 9.408,0 18.253,3.663 24.904,10.315 6.652,6.651 10.315,15.496 10.315,24.903 0,9.408-3.663,18.253-10.315,24.904z"/>
    <polygon points="182.081,101.43 172.539,91.888 158.396,106.031 182.081,129.715 213.104,98.692 198.961,84.549  "/>
  </g>
</svg>
