<?xml version='1.0' encoding='iso-8859-1'?>
<svg version="1.1" xmlns="http://www.w3.org/2000/svg" viewBox="0 0 216.521 216.521" xmlns:xlink="http://www.w3.org/1999/xlink" enable-background="new 0 0 216.521 216.521" style="fill: #FF7212">
  <g>
    <path d="m216.521,75.056l-27.856-3.727-6.639-40.743-132.046-17.671-17.118,37.563-27.857-3.728-5.005,37.404 16.509,2.209-5.575,12.233-7.254,54.201 128.825,17.24-2.077,15.523 41.985,5.618 2.077-15.523 15.423,2.064 7.254-54.201-2.162-13.267 16.51,2.209 5.006-37.404zm-149.249-41.37l92.608,12.393 7.798,55.887-122.625-16.411 22.219-51.869zm2.395,99.054l-37.801-5.059 2.606-19.473 37.801,5.059-2.606,19.473zm99.657,13.337l-38.946-5.212 2.606-19.473 38.946,5.212-2.606,19.473z"/>
    <rect width="44" x="16.26" y="171.606" height="32"/>
  </g>
</svg>
